<?xml version="1.0" encoding="utf-8"?><svg xml:space="preserve" viewBox="0 0 100 100" y="0" x="0" xmlns="http://www.w3.org/2000/svg" id="Layer_1" version="1.1" width="200px" height="200px" xmlns:xlink="http://www.w3.org/1999/xlink" style="width:100%;height:100%;background-size:initial;background-repeat-y:initial;background-repeat-x:initial;background-position-y:initial;background-position-x:initial;background-origin:initial;background-image:initial;background-clip:initial;background-attachment:initial;animation-play-state:paused" ><g class="ldl-scale" style="transform-origin:50% 50%;transform:rotate(0deg) scale(0.8, 0.8);animation-play-state:paused" ><path fill="#333" d="M79 90H21c-6.1 0-11-4.9-11-11V21c0-6.1 4.9-11 11-11h58c6.1 0 11 4.9 11 11v58c0 6.1-4.9 11-11 11z" data-darkreader-inline-fill="" style="fill:rgb(51, 51, 51);animation-play-state:paused" ></path>
<g style="animation-play-state:paused" ><g style="animation-play-state:paused" ><path fill="#e0e0e0" d="M71.1 37.2H28.9c-2.2 0-3.9-1.9-3.9-4.3s1.7-4.3 3.9-4.3h42.2c2.2 0 3.9 1.9 3.9 4.3s-1.7 4.3-3.9 4.3z" data-darkreader-inline-fill="" style="fill:rgb(224, 224, 224);animation-play-state:paused" ></path></g>
<g style="animation-play-state:paused" ><path fill="#e0e0e0" d="M71.1 54.3H28.9c-2.2 0-3.9-1.9-3.9-4.3s1.7-4.3 3.9-4.3h42.2c2.2 0 3.9 1.9 3.9 4.3s-1.7 4.3-3.9 4.3z" data-darkreader-inline-fill="" style="fill:rgb(224, 224, 224);animation-play-state:paused" ></path></g>
<g style="animation-play-state:paused" ><path fill="#e0e0e0" d="M71.1 71.3H28.9c-2.2 0-3.9-1.9-3.9-4.3s1.7-4.3 3.9-4.3h42.2c2.2 0 3.9 1.9 3.9 4.3s-1.7 4.3-3.9 4.3z" data-darkreader-inline-fill="" style="fill:rgb(224, 224, 224);animation-play-state:paused" ></path></g></g>
<metadata xmlns:d="https://loading.io/stock/" style="animation-play-state:paused" ><d:name style="animation-play-state:paused" >navbar</d:name>
<d:tags style="animation-play-state:paused" >menu,hamburger,dropdown,responsive,mobile,navbar,web application</d:tags>
<d:license style="animation-play-state:paused" >free</d:license>
<d:slug style="animation-play-state:paused" >obqvdq</d:slug></metadata></g><!-- generated by https://loading.io/ --></svg>